<svg width="18" height="18" viewBox="0 0 18 18" fill="none" xmlns="http://www.w3.org/2000/svg">
<path fill-rule="evenodd" clip-rule="evenodd" d="M17.3536 17.3536C17.1583 17.5488 16.8417 17.5488 16.6464 17.3536L11.2651 11.9722C11.0699 11.777 11.0699 11.4604 11.2651 11.2651C11.4604 11.0699 11.777 11.0699 11.9722 11.2651L17.3536 16.6464C17.5488 16.8417 17.5488 17.1583 17.3536 17.3536Z" fill="white"/>
<path fill-rule="evenodd" clip-rule="evenodd" d="M7 1.5C3.96243 1.5 1.5 3.96243 1.5 7C1.5 10.0376 3.96243 12.5 7 12.5C10.0376 12.5 12.5 10.0376 12.5 7C12.5 3.96243 10.0376 1.5 7 1.5ZM0.5 7C0.5 3.41015 3.41015 0.5 7 0.5C10.5899 0.5 13.5 3.41015 13.5 7C13.5 10.5899 10.5899 13.5 7 13.5C3.41015 13.5 0.5 10.5899 0.5 7Z" fill="white"/>
</svg>
